<?xml version="1.0" standalone="no"?><!DOCTYPE svg PUBLIC "-//W3C//DTD SVG 1.1//EN" "http://www.w3.org/Graphics/SVG/1.1/DTD/svg11.dtd"><svg t="1627371575929" class="icon" viewBox="0 0 1024 1024" version="1.1" xmlns="http://www.w3.org/2000/svg" p-id="2351" xmlns:xlink="http://www.w3.org/1999/xlink" width="24" height="24"><defs><style type="text/css">@font-face { font-family: feedback-iconfont; src: url("//at.alicdn.com/t/font_1031158_1uhr8ri0pk5.eot?#iefix") format("embedded-opentype"), url("//at.alicdn.com/t/font_1031158_1uhr8ri0pk5.woff2") format("woff2"), url("//at.alicdn.com/t/font_1031158_1uhr8ri0pk5.woff") format("woff"), url("//at.alicdn.com/t/font_1031158_1uhr8ri0pk5.ttf") format("truetype"), url("//at.alicdn.com/t/font_1031158_1uhr8ri0pk5.svg#iconfont") format("svg"); }
</style></defs><path d="M320 64 192 64C121.6 64 64 121.6 64 192l0 128c0 70.4 57.6 128 128 128l128 0c70.4 0 128-57.6 128-128L448 192C448 121.6 390.4 64 320 64zM768 64l-128 0C569.6 64 512 121.6 512 192l0 128c0 70.4 57.6 128 128 128l128 0c70.4 0 128-57.6 128-128L896 192C896 121.6 838.4 64 768 64zM320 512 192 512c-70.4 0-128 57.6-128 128l0 128c0 70.4 57.6 128 128 128l128 0c70.4 0 128-57.6 128-128l0-128C448 569.6 390.4 512 320 512zM768 512l-128 0c-70.4 0-128 57.6-128 128l0 128c0 70.4 57.6 128 128 128l128 0c70.4 0 128-57.6 128-128l0-128C896 569.6 838.4 512 768 512z" p-id="2352" fill="#e8989a"></path></svg>